HIERARCHY
ROOT joint_Root
{
	OFFSET 0.0 0.0 0.0
	CHANNELS 6 Xposition Yposition Zposition Zrotation Xrotation Yrotation 
	JOINT Hips
	{
		OFFSET 4.5925 91.4895 -427.239
		CHANNELS 6 Xposition Yposition Zposition Zrotation Xrotation Yrotation 
		JOINT Spine
		{
			OFFSET 15.7357 0.0 0.0
			CHANNELS 6 Xposition Yposition Zposition Zrotation Xrotation Yrotation 
			JOINT Chest
			{
				OFFSET 8.98455 -0.406207 0.0
				CHANNELS 6 Xposition Yposition Zposition Zrotation Xrotation Yrotation 
				JOINT Neck
				{
					OFFSET 16.3773 0.0 0.0
					CHANNELS 6 Xposition Yposition Zposition Zrotation Xrotation Yrotation 
					JOINT Head
					{
						OFFSET 6.45672 0.0 0.0
						CHANNELS 6 Xposition Yposition Zposition Zrotation Xrotation Yrotation 
						End Site
						{
							OFFSET 0.0 0.0 0.0
						}
					}
				}
				JOINT Shoulder_L
				{
					OFFSET 12.9942 -0.242716 4.98039
					CHANNELS 6 Xposition Yposition Zposition Zrotation Xrotation Yrotation 
					JOINT UpperArm_L
					{
						OFFSET 5.34809 0.0 0.0
						CHANNELS 6 Xposition Yposition Zposition Zrotation Xrotation Yrotation 
						JOINT LowerArm_L
						{
							OFFSET 24.3286 1.87007e-05 0.0
							CHANNELS 6 Xposition Yposition Zposition Zrotation Xrotation Yrotation 
							JOINT Hand_L
							{
								OFFSET 22.2916 0.0 0.0
								CHANNELS 6 Xposition Yposition Zposition Zrotation Xrotation Yrotation 
								End Site
								{
									OFFSET 0.0 0.0 0.0
								}
							}
						}
					}
				}
				JOINT Shoulder_R
				{
					OFFSET 12.9945 -0.242716 -4.98039
					CHANNELS 6 Xposition Yposition Zposition Zrotation Xrotation Yrotation 
					JOINT UpperArm_R
					{
						OFFSET -5.34813 0.0 0.0
						CHANNELS 6 Xposition Yposition Zposition Zrotation Xrotation Yrotation 
						JOINT LowerArm_R
						{
							OFFSET -24.3289 0.000322201 0.0
							CHANNELS 6 Xposition Yposition Zposition Zrotation Xrotation Yrotation 
							JOINT Hand_R
							{
								OFFSET -22.2915 -0.000108084 0.0
								CHANNELS 6 Xposition Yposition Zposition Zrotation Xrotation Yrotation 
								End Site
								{
									OFFSET 0.0 0.0 0.0
								}
							}
						}
					}
				}
			}
		}
		JOINT UpperLeg_L
		{
			OFFSET -2.19248 -6.46944 0.0
			CHANNELS 6 Xposition Yposition Zposition Zrotation Xrotation Yrotation 
			JOINT LowerLeg_L
			{
				OFFSET 39.0811 0.0 -1.23785e-05
				CHANNELS 6 Xposition Yposition Zposition Zrotation Xrotation Yrotation 
				JOINT Foot_L
				{
					OFFSET 40.9854 0.0 -1.26872e-05
					CHANNELS 6 Xposition Yposition Zposition Zrotation Xrotation Yrotation 
					JOINT Toes_L
					{
						OFFSET 11.7543 0.0 0.0
						CHANNELS 6 Xposition Yposition Zposition Zrotation Xrotation Yrotation 
						End Site
						{
							OFFSET 0.0 0.0 0.0
						}
					}
				}
			}
		}
		JOINT UpperLeg_R
		{
			OFFSET -2.19251 6.46944 0.0
			CHANNELS 6 Xposition Yposition Zposition Zrotation Xrotation Yrotation 
			JOINT LowerLeg_R
			{
				OFFSET -39.0811 -0.00228153 -0.0401928
				CHANNELS 6 Xposition Yposition Zposition Zrotation Xrotation Yrotation 
				JOINT Foot_R
				{
					OFFSET -40.9854 0.0 0.0
					CHANNELS 6 Xposition Yposition Zposition Zrotation Xrotation Yrotation 
					JOINT Toes_R
					{
						OFFSET -11.7543 0.0 0.0
						CHANNELS 6 Xposition Yposition Zposition Zrotation Xrotation Yrotation 
						End Site
						{
							OFFSET 0.0 0.0 0.0
						}
					}
				}
			}
		}
	}
}
MOTION
Frames:	4
Frame Time:	0.0333333
0.000000 0.000000 0.000000 0.000000 0.000000 -0.000000 5.393610 86.829400 10.341700 -88.162600 -3.506150 176.839000 15.735700 0.000005 -0.000001 43.306200 81.866100 -41.530500 8.984550 -0.406207 -0.000000 3.646040 -11.887400 3.937260 16.377300 -0.000001 -0.000001 -2.704780 -6.163570 3.266380 6.456720 -0.000001 -0.000000 -8.789930 -1.403390 10.121400 12.994200 -0.242716 4.980390 -88.716500 -5.087050 -75.817100 5.348090 -0.000007 -0.000001 -55.674800 40.416600 -24.526900 24.328600 0.000019 0.000005 19.071600 -7.079700 -109.622000 22.291600 -0.000001 0.000005 -1.138220 5.378630 -2.243660 12.994500 -0.242716 -4.980390 87.672800 6.009870 -68.779100 -5.348130 -0.000001 -0.000004 -62.417900 40.700700 10.265500 -24.328900 0.000322 -0.000009 -10.330000 3.339570 -107.724000 -22.291500 -0.000108 -0.000004 16.725000 5.601390 -11.425600 -2.192480 -6.469440 -0.000000 -175.000000 -7.390840 2.461330 39.081100 -0.000007 -0.000012 0.120707 -0.014583 83.107400 40.985400 -0.000006 -0.000013 4.656000 -8.895240 -47.822300 11.754300 -0.000000 0.000003 -0.004656 -0.058106 -18.940800 -2.192510 6.469440 -0.000001 -172.356000 11.567600 145.747000 -39.081100 -0.002282 -0.040193 -0.107526 0.109892 45.233200 -40.985400 0.000008 0.000006 6.846670 2.687150 -65.755000 -11.754300 -0.000006 -0.000006 -0.010491 -0.107272 -20.944300
0.000000 0.000000 0.000000 0.000000 0.000000 -0.000000 5.514000 83.872100 2.259160 -86.381600 -1.226690 179.065000 15.735700 0.000005 -0.000001 54.231500 81.818600 -51.699100 8.984550 -0.406207 -0.000000 5.791630 -9.584710 5.554360 16.377300 -0.000001 -0.000001 -3.998090 -5.619580 2.714840 6.456720 -0.000001 -0.000000 -8.361160 -2.398110 10.217400 12.994200 -0.242716 4.980390 -89.971300 -0.111983 -75.588200 5.348090 -0.000007 -0.000001 -60.314700 33.217000 -15.831100 24.328600 0.000019 0.000005 20.680200 -6.759770 -107.321000 22.291600 -0.000001 0.000005 0.586790 5.441950 -4.331710 12.994500 -0.242716 -4.980390 86.630800 10.387400 -71.909800 -5.348130 -0.000001 -0.000004 -53.994100 40.507500 0.711383 -24.328900 0.000322 -0.000009 -10.748800 4.051080 -110.412000 -22.291500 -0.000108 -0.000004 17.774900 5.616170 -12.353100 -2.192480 -6.469440 -0.000000 -173.404000 -9.145910 -3.984340 39.081100 -0.000007 -0.000012 0.060028 0.010794 100.184000 40.985400 -0.000006 -0.000013 7.558670 -11.045000 -46.809800 11.754300 -0.000000 0.000003 -0.005033 -0.061795 -19.091100 -2.192510 6.469440 -0.000001 -171.423000 5.150320 148.584000 -39.081100 -0.002282 -0.040193 -0.171039 0.115192 56.533700 -40.985400 0.000008 0.000006 8.716880 -3.477570 -76.762300 -11.754300 -0.000006 -0.000006 -0.002085 -0.029771 -17.783700
0.000000 0.000000 0.000000 0.000000 0.000000 -0.000000 5.570110 82.314800 -5.000730 -85.472400 -1.054020 179.560000 15.735700 0.000005 -0.000001 60.889600 81.830000 -57.887200 8.984550 -0.406207 -0.000000 6.776300 -7.950250 6.477320 16.377300 -0.000001 -0.000001 -4.295530 -5.637080 2.869930 6.456720 -0.000001 -0.000000 -9.234180 -2.867740 9.340000 12.994200 -0.242716 4.980390 -90.701500 2.662340 -75.230500 5.348090 -0.000007 -0.000001 -66.790400 25.150100 -7.268510 24.328600 0.000019 0.000005 24.180800 -5.649350 -102.372000 22.291600 -0.000001 0.000005 5.584740 5.454860 -4.844330 12.994500 -0.242716 -4.980390 86.516400 12.412900 -74.188100 -5.348130 -0.000001 -0.000004 -48.346800 39.953800 -12.868400 -24.328900 0.000322 -0.000009 -10.577900 3.673870 -108.931000 -22.291500 -0.000108 -0.000004 18.776100 5.618050 -12.490300 -2.192480 -6.469440 -0.000000 -174.406000 -8.034190 -15.806000 39.081100 -0.000007 -0.000012 -0.235204 -0.100590 113.158000 40.985400 -0.000006 -0.000013 12.263300 -11.024400 -44.301300 11.754300 -0.000000 0.000003 -0.004549 -0.057042 -18.897400 -2.192510 6.469440 -0.000001 -170.805000 8.273600 153.241000 -39.081100 -0.002282 -0.040193 -0.061487 0.037110 60.157800 -40.985400 0.000008 0.000006 10.715500 -2.657360 -84.874800 -11.754300 -0.000006 -0.000006 -0.001167 -0.017751 -17.295000
0.000000 0.000000 0.000000 0.000000 0.000000 -0.000000 5.106100 82.320200 -12.555600 -86.723200 -0.616089 178.546000 15.735700 0.000005 -0.000001 69.840300 82.933100 -67.200500 8.984550 -0.406207 -0.000000 5.636840 -4.908410 5.518160 16.377300 -0.000001 -0.000001 -4.120030 -5.743610 3.109620 6.456720 -0.000001 -0.000000 -8.658220 -4.281750 9.000300 12.994200 -0.242716 4.980390 -90.526000 1.848800 -74.115400 5.348090 -0.000007 -0.000001 -73.294300 21.536600 -0.281554 24.328600 0.000019 0.000005 26.456700 -5.607600 -101.111000 22.291600 -0.000001 0.000005 4.904550 5.443310 -4.413120 12.994500 -0.242716 -4.980390 87.200800 10.957400 -75.575500 -5.348130 -0.000001 -0.000004 -49.641500 38.078200 -21.298800 -24.328900 0.000322 -0.000009 -6.408940 2.144030 -108.425000 -22.291500 -0.000108 -0.000004 18.680700 5.617290 -12.434900 -2.192480 -6.469440 -0.000000 -178.067000 -6.944830 -27.416200 39.081100 -0.000007 -0.000012 -0.433016 -0.228170 117.787000 40.985400 -0.000006 -0.000013 14.024800 -10.241900 -46.448100 11.754300 -0.000000 0.000003 -0.004917 -0.060667 -19.045100 -2.192510 6.469440 -0.000001 -173.467000 10.972100 159.451000 -39.081100 -0.002282 -0.040193 0.150716 -0.091343 58.232100 -40.985400 0.000008 0.000006 11.949800 -0.698594 -89.621700 -11.754300 -0.000006 -0.000006 -0.032338 -0.056943 -17.409300
